<?xml version="1.0" encoding="utf-8"?>
<!-- Generator: Adobe Illustrator 25.2.3, SVG Export Plug-In . SVG Version: 6.00 Build 0)  -->
<svg version="1.1" id="Capa_1" xmlns="http://www.w3.org/2000/svg" xmlns:xlink="http://www.w3.org/1999/xlink" x="0px" y="0px"
	 viewBox="0 0 512 512" style="enable-background:new 0 0 512 512;" xml:space="preserve">
<g>
	<g>
		<g>
			<g>
				<polygon points="212.6,294.5 135.5,294.5 135.5,316.5 212.6,316.5 212.6,349.5 256.5,305.5 212.6,261.5 				"/>
			</g>
			<g>
				<polygon points="278.4,228.5 278.4,195.5 234.5,239.5 278.4,283.5 278.4,250.5 355.5,250.5 355.5,228.5 				"/>
			</g>
		</g>
	</g>
</g>
<g>
	<path d="M245.5,454C145.4,454,64,372.6,64,272.5C64,172.4,145.4,91,245.5,91C345.6,91,427,172.4,427,272.5
		C427,372.6,345.6,454,245.5,454z M245.5,105C153.1,105,78,180.1,78,272.5C78,364.9,153.1,440,245.5,440
		c92.4,0,167.5-75.1,167.5-167.5C413,180.1,337.9,105,245.5,105z"/>
</g>
</svg>
